<svg xmlns="http://www.w3.org/2000/svg" viewBox="0 0 512 512">
  <!-- Dark rounded background -->
  <rect width="512" height="512" rx="96" fill="#0c0e12"/>

  <!-- Amber warning triangle -->
  <path d="M256 88 L444 412 Q448 428 432 428 L80 428 Q64 428 68 412 Z"
        fill="#1a1200" stroke="#f59e0b" stroke-width="28"
        stroke-linejoin="round" stroke-linecap="round"/>

  <!-- Exclamation bar (top, slightly shorter) -->
  <rect x="242" y="148" width="28" height="130" rx="14" fill="#f59e0b"/>

  <!-- Flame (flipped — tip points down, flares at top) -->
  <path d="M256 415
           C256 415 288 379 288 355
           C288 339 283 328 276 322
           C276 345 263 359 256 368
           C249 359 236 345 236 322
           C229 328 224 339 224 355
           C224 379 256 415 256 415Z"
        fill="#f59e0b"/>

  <!-- Flame inner highlight -->
  <path d="M256 391
           C256 391 271 373 271 359
           C271 350 269 344 265 340
           C264 350 259 356 256 360
           C253 356 248 350 247 340
           C243 344 241 350 241 359
           C241 373 256 391 256 391Z"
        fill="#fde68a" opacity="0.85"/>
</svg>
