<svg xmlns="http://www.w3.org/2000/svg" viewBox="0 0 512 512">
  <!-- Dark rounded background -->
  <rect width="512" height="512" rx="96" fill="#0c0e12"/>

  <!-- Amber warning triangle -->
  <path d="M256 88 L444 412 Q448 428 432 428 L80 428 Q64 428 68 412 Z"
        fill="#1a1200" stroke="#f59e0b" stroke-width="28"
        stroke-linejoin="round" stroke-linecap="round"/>

  <!-- Exclamation bar (top) -->
  <rect x="242" y="172" width="28" height="116" rx="14" fill="#f59e0b"/>

  <!-- Flame (flipped — tip points down, flares at top) -->
  <path d="M256 390
           C256 390 288 354 288 330
           C288 314 283 303 276 297
           C276 320 263 334 256 343
           C249 334 236 320 236 297
           C229 303 224 314 224 330
           C224 354 256 390 256 390Z"
        fill="#f59e0b"/>

  <!-- Flame inner highlight -->
  <path d="M256 366
           C256 366 271 348 271 334
           C271 325 269 319 265 315
           C264 325 259 331 256 335
           C253 331 248 325 247 315
           C243 319 241 325 241 334
           C241 348 256 366 256 366Z"
        fill="#fde68a" opacity="0.85"/>
</svg>
