<svg xmlns="http://www.w3.org/2000/svg" viewBox="0 0 512 512">
  <!-- Dark rounded background -->
  <rect width="512" height="512" rx="96" fill="#0c0e12"/>

  <!-- Amber warning triangle -->
  <path d="M256 88 L444 412 Q448 428 432 428 L80 428 Q64 428 68 412 Z"
        fill="#1a1200" stroke="#f59e0b" stroke-width="28"
        stroke-linejoin="round" stroke-linecap="round"/>

  <!-- Exclamation bar (top, straight part) -->
  <rect x="242" y="148" width="28" height="160" rx="14" fill="#f59e0b"/>

  <!-- Flame (bottom, replaces the dot) -->
  <path d="M256 322
           C256 322 288 358 288 382
           C288 398 283 409 276 415
           C276 392 263 378 256 369
           C249 378 236 392 236 415
           C229 409 224 398 224 382
           C224 358 256 322 256 322Z"
        fill="#f59e0b"/>

  <!-- Flame inner highlight -->
  <path d="M256 346
           C256 346 271 364 271 378
           C271 387 269 393 265 397
           C264 387 259 381 256 377
           C253 381 248 387 247 397
           C243 393 241 387 241 378
           C241 364 256 346 256 346Z"
        fill="#fde68a" opacity="0.85"/>
</svg>
